<svg width="80" height="64" viewBox="0 0 80 64" fill="none" xmlns="http://www.w3.org/2000/svg">
<g clip-path="url(#clip0_138_100)">
<path d="M10 10C10 7.87827 10.8429 5.84344 12.3431 4.34315C13.8434 2.84285 15.8783 2 18 2C20.1217 2 22.1566 2.84285 23.6569 4.34315C25.1571 5.84344 26 7.87827 26 10C26 12.1217 25.1571 14.1566 23.6569 15.6569C22.1566 17.1571 20.1217 18 18 18C15.8783 18 13.8434 17.1571 12.3431 15.6569C10.8429 14.1566 10 12.1217 10 10ZM28 10C28 7.34784 26.9464 4.8043 25.0711 2.92893C23.1957 1.05357 20.6522 0 18 0C15.3478 0 12.8043 1.05357 10.9289 2.92893C9.05357 4.8043 8 7.34784 8 10C8 12.6522 9.05357 15.1957 10.9289 17.0711C12.8043 18.9464 15.3478 20 18 20C20.6522 20 23.1957 18.9464 25.0711 17.0711C26.9464 15.1957 28 12.6522 28 10ZM40 18C42.6522 18 45.1957 19.0536 47.0711 20.9289C48.9464 22.8043 50 25.3478 50 28C50 30.6522 48.9464 33.1957 47.0711 35.0711C45.1957 36.9464 42.6522 38 40 38C37.3478 38 34.8043 36.9464 32.9289 35.0711C31.0536 33.1957 30 30.6522 30 28C30 25.3478 31.0536 22.8043 32.9289 20.9289C34.8043 19.0536 37.3478 18 40 18ZM40 40C41.5759 40 43.1363 39.6896 44.5922 39.0866C46.0481 38.4835 47.371 37.5996 48.4853 36.4853C49.5996 35.371 50.4835 34.0481 51.0866 32.5922C51.6896 31.1363 52 29.5759 52 28C52 26.4241 51.6896 24.8637 51.0866 23.4078C50.4835 21.9519 49.5996 20.629 48.4853 19.5147C47.371 18.4004 46.0481 17.5165 44.5922 16.9134C43.1363 16.3104 41.5759 16 40 16C38.4241 16 36.8637 16.3104 35.4078 16.9134C33.9519 17.5165 32.629 18.4004 31.5147 19.5147C30.4004 20.629 29.5165 21.9519 28.9134 23.4078C28.3104 24.8637 28 26.4241 28 28C28 29.5759 28.3104 31.1363 28.9134 32.5922C29.5165 34.0481 30.4004 35.371 31.5147 36.4853C32.629 37.5996 33.9519 38.4835 35.4078 39.0866C36.8637 39.6896 38.4241 40 40 40ZM32.6625 46H47.3375C55.4375 46 62 52.5625 62 60.6625C62 61.4 61.4 62 60.6625 62H19.3375C18.6 62 18 61.4 18 60.6625C18 52.5625 24.5625 46 32.6625 46ZM32.6625 44C23.4625 44 16 51.4625 16 60.6625C16 62.5 17.4875 64 19.3375 64H60.6625C62.5 64 64 62.5125 64 60.6625C64 51.4625 56.5375 44 47.3375 44H32.6625ZM64 2C66.1217 2 68.1566 2.84285 69.6569 4.34315C71.1571 5.84344 72 7.87827 72 10C72 12.1217 71.1571 14.1566 69.6569 15.6569C68.1566 17.1571 66.1217 18 64 18C61.8783 18 59.8434 17.1571 58.3431 15.6569C56.8429 14.1566 56 12.1217 56 10C56 7.87827 56.8429 5.84344 58.3431 4.34315C59.8434 2.84285 61.8783 2 64 2ZM64 20C66.6522 20 69.1957 18.9464 71.0711 17.0711C72.9464 15.1957 74 12.6522 74 10C74 7.34784 72.9464 4.8043 71.0711 2.92893C69.1957 1.05357 66.6522 0 64 0C61.3478 0 58.8043 1.05357 56.9289 2.92893C55.0536 4.8043 54 7.34784 54 10C54 12.6522 55.0536 15.1957 56.9289 17.0711C58.8043 18.9464 61.3478 20 64 20ZM67 26C73.075 26 78 30.925 78 37C78 37.55 78.45 38 79 38C79.55 38 80 37.55 80 37C80 29.825 74.175 24 67 24H55.5C55.6625 24.65 55.8 25.325 55.875 26H67ZM24.125 26C24.2125 25.325 24.3375 24.65 24.5 24H13C5.825 24 0 29.825 0 37C0 37.55 0.45 38 1 38C1.55 38 2 37.55 2 37C2 30.925 6.925 26 13 26H24.125Z" fill="#00AEEF"/>
</g>
<defs>
<clipPath id="clip0_138_100">
<rect width="80" height="64" fill="white"/>
</clipPath>
</defs>
</svg>
