<svg width="64" height="64" viewBox="0 0 64 64" fill="none" xmlns="http://www.w3.org/2000/svg">
<g clip-path="url(#clip0_147_259)">
<path d="M62 32C62 28.0603 61.224 24.1593 59.7164 20.5195C58.2087 16.8797 55.999 13.5726 53.2132 10.7868C50.4274 8.00104 47.1203 5.79125 43.4805 4.28361C39.8407 2.77597 35.9397 2 32 2C28.0603 2 24.1593 2.77597 20.5195 4.28361C16.8797 5.79125 13.5726 8.00104 10.7868 10.7868C8.00104 13.5726 5.79125 16.8797 4.28361 20.5195C2.77597 24.1593 2 28.0603 2 32C2 35.9397 2.77597 39.8407 4.28361 43.4805C5.79125 47.1203 8.00104 50.4274 10.7868 53.2132C13.5726 55.999 16.8797 58.2087 20.5195 59.7164C24.1593 61.224 28.0603 62 32 62C35.9397 62 39.8407 61.224 43.4805 59.7164C47.1203 58.2087 50.4274 55.999 53.2132 53.2132C55.999 50.4274 58.2087 47.1203 59.7164 43.4805C61.224 39.8407 62 35.9397 62 32ZM0 32C0 23.5131 3.37142 15.3737 9.37258 9.37258C15.3737 3.37142 23.5131 0 32 0C40.4869 0 48.6263 3.37142 54.6274 9.37258C60.6286 15.3737 64 23.5131 64 32C64 40.4869 60.6286 48.6263 54.6274 54.6274C48.6263 60.6286 40.4869 64 32 64C23.5131 64 15.3737 60.6286 9.37258 54.6274C3.37142 48.6263 0 40.4869 0 32ZM32.0375 43.475C26.6625 43.475 21.525 42.7875 16.85 41.55C16.3625 41.425 15.9625 41.5875 15.7625 41.775C15.675 41.8625 15.65 41.925 15.65 41.95C15.65 41.9625 15.6375 42.0375 15.7125 42.1875C18.8375 48.0375 24.975 52 32.025 52C39.075 52 45.2125 48.0375 48.3375 42.1875C48.425 42.0375 48.4125 41.9625 48.4 41.95C48.4 41.925 48.375 41.8625 48.2875 41.775C48.0875 41.5875 47.6875 41.425 47.2 41.55C42.525 42.7875 37.4 43.475 32.0125 43.475H32.0375ZM50.1125 43.1375C46.65 49.6 39.85 54 32.0375 54C24.225 54 17.425 49.6 13.9625 43.1375C12.825 41.0125 15.05 39 17.375 39.6125C21.875 40.8125 26.825 41.475 32.0375 41.475C37.25 41.475 42.2125 40.8125 46.7 39.6125C49.025 39 51.25 41.0125 50.1125 43.1375ZM20 14C20.3875 14 20.7375 14.225 20.9 14.575L23.55 20.125L29.6375 20.925C30.025 20.975 30.3375 21.2375 30.4625 21.6125C30.5875 21.9875 30.475 22.3875 30.2 22.65L25.7375 26.875L26.8625 32.9125C26.9375 33.2875 26.775 33.675 26.4625 33.9C26.15 34.125 25.7375 34.15 25.4 33.975L20 31.0375L14.6 33.975C14.2625 34.1625 13.85 34.1375 13.5375 33.9C13.225 33.6625 13.075 33.2875 13.1375 32.9125L14.2625 26.875L9.8 22.6375C9.525 22.375 9.4125 21.975 9.5375 21.6C9.6625 21.225 9.975 20.9625 10.3625 20.9125L16.45 20.1125L19.1 14.5625C19.2625 14.2125 19.6125 13.9875 20 13.9875V14ZM20 17.325L18.025 21.475C17.875 21.775 17.5875 21.9875 17.25 22.0375L12.7 22.625L16.025 25.7875C16.275 26.025 16.3875 26.3625 16.325 26.7L15.4875 31.2125L19.525 29.025C19.825 28.8625 20.1875 28.8625 20.475 29.025L24.5125 31.2125L23.675 26.7C23.6125 26.3625 23.725 26.025 23.975 25.7875L27.3 22.625L22.75 22.025C22.4125 21.975 22.125 21.775 21.975 21.4625L20 17.325ZM44.9 14.575L47.55 20.125L53.6375 20.925C54.025 20.975 54.3375 21.2375 54.4625 21.6125C54.5875 21.9875 54.475 22.3875 54.2 22.65L49.7375 26.875L50.8625 32.9125C50.9375 33.2875 50.775 33.675 50.4625 33.9C50.15 34.125 49.7375 34.15 49.4 33.975L44 31.0375L38.6 33.975C38.2625 34.1625 37.85 34.1375 37.5375 33.9C37.225 33.6625 37.075 33.2875 37.1375 32.9125L38.2625 26.875L33.8 22.65C33.525 22.3875 33.4125 21.9875 33.5375 21.6125C33.6625 21.2375 33.975 20.975 34.3625 20.925L40.45 20.125L43.1 14.575C43.2625 14.225 43.6125 14 44 14C44.3875 14 44.7375 14.225 44.9 14.575ZM42.025 21.475C41.875 21.775 41.5875 21.9875 41.25 22.0375L36.7 22.625L40.025 25.7875C40.275 26.025 40.3875 26.3625 40.325 26.7L39.4875 31.2125L43.525 29.025C43.825 28.8625 44.1875 28.8625 44.475 29.025L48.5125 31.2125L47.675 26.7C47.6125 26.3625 47.725 26.025 47.975 25.7875L51.3 22.625L46.75 22.025C46.4125 21.975 46.125 21.775 45.975 21.4625L44 17.325L42.025 21.475Z" fill="#00AEEF"/>
</g>
<defs>
<clipPath id="clip0_147_259">
<rect width="64" height="64" fill="white"/>
</clipPath>
</defs>
</svg>
