<svg width="64" height="64" viewBox="0 0 64 64" fill="none" xmlns="http://www.w3.org/2000/svg">
<g clip-path="url(#clip0_138_116)">
<path d="M58 4.00003C58 0.487529 53.7875 -1.32497 51.2375 1.10003L45.7375 6.33753C40.8 11.05 34.625 14.175 28 15.4125V17.45C35.1375 16.2 41.8 12.8625 47.1125 7.80003L52.6125 2.56253C53.8875 1.35003 55.9875 2.25003 55.9875 4.01253V56C55.9875 57.7625 53.8875 58.6625 52.6125 57.45L47.1125 52.2125C41.8 47.15 35.1375 43.8125 28 42.5625V44.6C34.625 45.8375 40.8 48.9625 45.7375 53.6625L51.2375 58.9C53.7875 61.325 58 59.525 58 56V39.1625C61.5375 37.625 64 34.1 64 30C64 25.9 61.5375 22.375 58 20.8375V4.00003ZM24 52V44.0875V42.0875V17.925V15.925C23.2 15.975 22.4 16.0125 21.6 16.0125H20H8C3.5875 16.0125 0 19.6 0 24.0125V36.0125C0 40.425 3.5875 44.0125 8 44.0125V59.0125C8 61.775 10.2375 64.0125 13 64.0125H19C21.7625 64.0125 24 61.775 24 59.0125V52ZM58 36.925V23.075C60.3875 24.4625 62 27.0375 62 30C62 32.9625 60.3875 35.55 58 36.925ZM22 44V59C22 60.6625 20.6625 62 19 62H13C11.3375 62 10 60.6625 10 59V44H20H21.6C21.7375 44 21.8625 44 22 44ZM21.6 42H20H8C4.6875 42 2 39.3125 2 36V24C2 20.6875 4.6875 18 8 18H20H21.6C21.7375 18 21.8625 18 22 18V42C21.8625 42 21.7375 42 21.6 42Z" fill="#00AEEF"/>
</g>
<defs>
<clipPath id="clip0_138_116">
<rect width="64" height="64" fill="white"/>
</clipPath>
</defs>
</svg>
