<svg width="72" height="64" viewBox="0 0 72 64" fill="none" xmlns="http://www.w3.org/2000/svg">
<g clip-path="url(#clip0_147_257)">
<path d="M52 1C52 0.45 52.45 0 53 0H67C67.55 0 68 0.45 68 1V15C68 15.55 67.55 16 67 16C66.45 16 66 15.55 66 15V3.3375L40.6625 25.75C40.2625 26.1 39.6625 26.0875 39.2875 25.7125L23.9125 10.3375L1.61249 27.7875C1.17499 28.125 0.549991 28.05 0.212491 27.6125C-0.125009 27.175 -0.0500095 26.55 0.387491 26.2125L23.3875 8.2125C23.7875 7.9 24.35 7.9375 24.7125 8.2875L40.0375 23.625L64.4875 2H53C52.45 2 52 1.55 52 1ZM24 30C22.9 30 22 30.9 22 32V56C22 57.1 22.9 58 24 58C25.1 58 26 57.1 26 56V32C26 30.9 25.1 30 24 30ZM20 32C20 29.7875 21.7875 28 24 28C26.2125 28 28 29.7875 28 32V56C28 58.2125 26.2125 60 24 60C21.7875 60 20 58.2125 20 56V32ZM9.99999 44C9.99999 42.9 9.09999 42 7.99999 42C6.89999 42 5.99999 42.9 5.99999 44V56C5.99999 57.1 6.89999 58 7.99999 58C9.09999 58 9.99999 57.1 9.99999 56V44ZM3.99999 44C3.99999 41.7875 5.78749 40 7.99999 40C10.2125 40 12 41.7875 12 44V56C12 58.2125 10.2125 60 7.99999 60C5.78749 60 3.99999 58.2125 3.99999 56V44ZM54 62C58.2435 62 62.3131 60.3143 65.3137 57.3137C68.3143 54.3131 70 50.2435 70 46C70 41.7565 68.3143 37.6869 65.3137 34.6863C62.3131 31.6857 58.2435 30 54 30C49.7565 30 45.6869 31.6857 42.6863 34.6863C39.6857 37.6869 38 41.7565 38 46C38 50.2435 39.6857 54.3131 42.6863 57.3137C45.6869 60.3143 49.7565 62 54 62ZM54 28C58.7739 28 63.3523 29.8964 66.7279 33.2721C70.1036 36.6477 72 41.2261 72 46C72 50.7739 70.1036 55.3523 66.7279 58.7279C63.3523 62.1036 58.7739 64 54 64C49.2261 64 44.6477 62.1036 41.2721 58.7279C37.8964 55.3523 36 50.7739 36 46C36 41.2261 37.8964 36.6477 41.2721 33.2721C44.6477 29.8964 49.2261 28 54 28ZM50.475 39.7375C49.475 40.25 48.9375 40.95 49.0125 41.9375C49.0625 42.5875 49.4625 43.125 50.45 43.625C51.4375 44.125 52.7375 44.475 54.2 44.875L54.325 44.9125C55.7625 45.3 57.3625 45.7375 58.5875 46.425C59.8625 47.1375 60.9375 48.2375 60.9875 49.975C61.05 52.025 59.875 53.35 58.4375 54.1C57.375 54.65 56.125 54.9125 54.9875 54.9875V57.2C54.9875 57.75 54.5375 58.2 53.9875 58.2C53.4375 58.2 52.9875 57.75 52.9875 57.2V54.925C51.4125 54.75 49.9 54.2875 48.5 53.8625C48.2375 53.775 47.9625 53.7 47.7125 53.625C47.1875 53.4625 46.875 52.9125 47.0375 52.3875C47.2 51.8625 47.75 51.55 48.275 51.7125C48.5625 51.8 48.8375 51.875 49.1125 51.9625C50.8125 52.475 52.375 52.95 54.0125 53C55.1875 53.0375 56.525 52.825 57.5125 52.3125C58.4625 51.825 59.0125 51.1125 58.975 50.025C58.95 49.25 58.525 48.6875 57.5875 48.1625C56.6125 47.6125 55.275 47.2375 53.775 46.8375L53.55 46.775C52.175 46.4125 50.6875 46.0125 49.5125 45.4C48.25 44.75 47.1 43.7375 46.9875 42.0625C46.85 40 48.1 38.675 49.5375 37.95C50.6 37.4125 51.85 37.1375 52.9625 37.0375V35C52.9625 34.45 53.4125 34 53.9625 34C54.5125 34 54.9625 34.45 54.9625 35V37.05C56.2375 37.15 57.5125 37.4 58.6875 37.675C59.225 37.8 59.5625 38.3375 59.425 38.875C59.2875 39.4125 58.7625 39.75 58.225 39.6125C56.8 39.275 55.3375 39.0125 53.9375 38.9875C52.8375 38.975 51.4625 39.1875 50.425 39.7125L50.475 39.7375Z" fill="#00AEEF"/>
</g>
<defs>
<clipPath id="clip0_147_257">
<rect width="72" height="64" fill="white"/>
</clipPath>
</defs>
</svg>
