<svg width="80" height="64" viewBox="0 0 80 64" fill="none" xmlns="http://www.w3.org/2000/svg">
<g clip-path="url(#clip0_101_2764)">
<path d="M72 2C75.3125 2 78 4.6875 78 8V48C78 51.3125 75.3125 54 72 54H8C4.6875 54 2 51.3125 2 48V8C2 4.6875 4.6875 2 8 2H72ZM8 0C3.5875 0 0 3.5875 0 8V48C0 52.4125 3.5875 56 8 56H72C76.4125 56 80 52.4125 80 48V8C80 3.5875 76.4125 0 72 0H8ZM12 63C12 63.55 12.45 64 13 64H67C67.55 64 68 63.55 68 63C68 62.45 67.55 62 67 62H13C12.45 62 12 62.45 12 63ZM10 10H70V46H10V10ZM8 10V46C8 47.1 8.9 48 10 48H70C71.1 48 72 47.1 72 46V10C72 8.9 71.1 8 70 8H10C8.9 8 8 8.9 8 10Z" fill="#00AEEF"/>
</g>
<defs>
<clipPath id="clip0_101_2764">
<rect width="80" height="64" fill="white"/>
</clipPath>
</defs>
</svg>
